<?xml version="1.0" encoding="UTF-8"?> <svg xmlns="http://www.w3.org/2000/svg" width="40" height="40" viewBox="0 0 40 40" fill="none"><path fill-rule="evenodd" clip-rule="evenodd" d="M28 2C22.48 2 18 6.48 18 12C18 17.52 22.48 22 28 22C33.52 22 38 17.52 38 12C38 6.48 33.52 2 28 2ZM29.9733 13.9733L28 18.9733L26.0267 13.9733L21.0267 12L26.0267 10.0267L28 5.02667L29.9733 10.0267L34.9733 12L29.9733 13.9733Z" fill="#FFD767"></path><path d="M35.2139 11.38L30.4872 9.51337L28.6205 4.7867C28.5205 4.53337 28.2739 4.3667 28.0005 4.3667C27.7272 4.3667 27.4805 4.53337 27.3805 4.7867L25.5139 9.51337L20.7872 11.38C20.5339 11.48 20.3672 11.7267 20.3672 12C20.3672 12.2734 20.5339 12.52 20.7872 12.62L25.5139 14.4867L27.3805 19.2134C27.4805 19.4667 27.7272 19.6334 28.0005 19.6334C28.2739 19.6334 28.5205 19.4667 28.6205 19.2134L30.4872 14.4867L35.2139 12.62C35.4672 12.52 35.6339 12.2734 35.6339 12C35.6339 11.7267 35.4672 11.48 35.2139 11.38ZM29.7272 13.3534C29.5539 13.42 29.4205 13.56 29.3539 13.7267L28.0005 17.1534L26.6472 13.7267C26.5805 13.5534 26.4405 13.42 26.2739 13.3534L22.8472 12L26.2739 10.6467C26.4472 10.58 26.5805 10.44 26.6472 10.2734L28.0005 6.8467L29.3539 10.2734C29.4205 10.4467 29.5605 10.58 29.7272 10.6467L33.1539 12L29.7272 13.3534Z" fill="#0B1736"></path><path d="M4.04036 22.6998C2.2137 20.8598 2.2137 17.8598 4.04036 16.0131C4.92036 15.1265 6.0937 14.6331 7.34703 14.6331C8.60036 14.6331 9.7737 15.1198 10.6537 16.0131L15.4537 20.8465C15.7137 21.1065 16.1337 21.1065 16.3937 20.8465C16.6537 20.5865 16.6537 20.1665 16.3937 19.9065L11.5937 15.0731C10.4604 13.9331 8.94703 13.2998 7.34036 13.2998C5.7337 13.2998 4.22036 13.9265 3.08703 15.0731C0.747031 17.4331 0.747031 21.2731 3.08703 23.6331L7.84036 28.4265C7.9737 28.5598 8.14036 28.6265 8.3137 28.6265C8.48703 28.6265 8.6537 28.5598 8.78036 28.4331C9.04036 28.1731 9.04036 27.7531 8.78036 27.4931L4.02703 22.6998H4.04036Z" fill="#0B1736"></path><path d="M20.0006 23.5402C19.7406 23.2802 19.3206 23.2802 19.0606 23.5402C18.8006 23.8002 18.8006 24.2202 19.0606 24.4802L23.814 29.2669C25.6406 31.1135 25.6406 34.1069 23.814 35.9535C22.934 36.8402 21.7606 37.3335 20.5073 37.3335C19.254 37.3335 18.0806 36.8469 17.2006 35.9535L12.4006 31.1202C12.1406 30.8602 11.7206 30.8602 11.4606 31.1202C11.2006 31.3802 11.2006 31.8002 11.4606 32.0602L16.2606 36.8935C17.394 38.0335 18.9073 38.6669 20.514 38.6669C22.1206 38.6669 23.634 38.0402 24.7673 36.8935C27.1073 34.5335 27.1073 30.6935 24.7673 28.3335L20.014 23.5469L20.0006 23.5402Z" fill="#0B1736"></path><path d="M8.86004 20.8802C8.60004 21.1402 8.60004 21.5602 8.86004 21.8202L18.0867 31.1202C18.22 31.2536 18.3867 31.3202 18.56 31.3202C18.7334 31.3202 18.9 31.2536 19.0267 31.1269C19.2867 30.8669 19.2867 30.4469 19.0267 30.1869L9.80004 20.8869C9.54004 20.6269 9.12004 20.6269 8.86004 20.8869V20.8802Z" fill="#0B1736"></path></svg> 